<svg xmlns="http://www.w3.org/2000/svg" xmlns:xlink="http://www.w3.org/1999/xlink" width="4" height="15" viewBox="0 0 4 15"><defs><path id="gn6da" d="M301.664 16.794c.98 0 1.774-.81 1.774-1.81 0-.998-.794-1.809-1.774-1.809s-1.775.81-1.775 1.81c0 .999.795 1.809 1.775 1.809zm0 1.81c-.98 0-1.775.81-1.775 1.809 0 .999.795 1.809 1.775 1.809.98 0 1.774-.81 1.774-1.81 0-.999-.794-1.809-1.774-1.809zm0 5.427c-.98 0-1.775.81-1.775 1.81 0 .998.795 1.809 1.775 1.809.98 0 1.774-.81 1.774-1.81 0-.999-.794-1.81-1.774-1.81z"/></defs><g><g transform="translate(-300 -13)"><use fill="#fff" xlink:href="#gn6da"/></g></g></svg>